<?xml version="1.0" encoding="UTF-8"?>
<svg xmlns="http://www.w3.org/2000/svg" xmlns:xlink="http://www.w3.org/1999/xlink" viewBox="0 0 512 512" width="512px" height="512px">
<g id="surface304084753">
<path style=" stroke:none;fill-rule:nonzero;fill:rgb(35.686275%,74.509805%,25.882354%);fill-opacity:1;" d="M 256 68.265625 C 184.558594 68.265625 91.832031 86.167969 91.832031 86.167969 L 91.601562 86.433594 C 59.0625 91.636719 34.132812 119.597656 34.132812 153.601562 L 34.132812 358.433594 C 34.199219 391.980469 58.628906 420.507812 91.765625 425.734375 L 91.832031 425.832031 C 91.832031 425.832031 184.558594 443.765625 256 443.765625 C 327.441406 443.765625 420.167969 425.832031 420.167969 425.832031 L 420.199219 425.800781 C 453.375 420.585938 477.832031 392.015625 477.867188 358.433594 L 477.867188 153.601562 C 477.816406 120.039062 453.382812 91.492188 420.234375 86.265625 L 420.167969 86.167969 C 420.167969 86.167969 327.441406 68.265625 256 68.265625 Z M 204.800781 177.464844 L 341.332031 256 L 204.800781 334.535156 Z M 204.800781 177.464844 "/>
</g>
</svg>
